PathFileType	4	(X/Y/Z)	C:/Users/beibeiliu/ov580/test_trc\sequence.9_training_dense_right.trc
DataRate	CameraRate	NumFrames	NumMarkers	Units	OrigDataRate	OrigDataStartFrame	OrigNumFrames
120	120	25	19	mm	120	115	200
Frame#	Time	ThumbCMC			ThumbMCP			ThumbIP			ThumbTip			IndexMCP			IndexPIP			IndexTip			MiddleMCP			MiddlePIP			MiddleTip			RingMCP			RingPIP			RingTip			PinkyMCP			PinkyPIP			PinkyTip			BackHand1			BackHand2			BackHand3	
		X0	Y0	Z0	X1	Y1	Z1	X2	Y2	Z2	X3	Y3	Z3	X4	Y4	Z4	X5	Y5	Z5	X6	Y6	Z6	X7	Y7	Z7	X8	Y8	Z8	X9	Y9	Z9	X10	Y10	Z10	X11	Y11	Z11	X12	Y12	Z12	X13	Y13	Z13	X14	Y14	Z14	X15	Y15	Z15	X16	Y16	Z16	X17	Y17	Z17	X18	Y18	Z18	
114	0.95	149.343	32.3671	202.52	130.915	44.1455	181.275	123.668	62.2722	163.267	127.804	77.7773	139.259	176.813	88.5251	168.528	159.259	99.6247	145.004	138.799	85.5116	126.018	203.425	81.0674	152.571	192.867	99.0721	131.86	168.884	102.281	109.393	209.721	69.2153	146.648	204.593	86.8799	119.37	184.161	91.5549	101.715	214.603	43.9601	135.962	209.826	65.2739	114.226	191.15	74.076	96.9406	209.364	22.663	177.126	204.491	4.68086	193.512	187.831	29.5159	206.447	
115	0.958333	147.011	27.7781	204.305	127.321	43.7343	181.536	119.19	62.5867	164.201	127.667	73.3471	139.328	177.469	85.6833	167.446	157.141	99.3509	144.488	132.849	85.3727	127.654	199.832	80.8363	154.633	190.273	98.1079	125.686	162.864	101.545	106.382	208.745	62.4531	144.432	203.54	84.8093	122.344	181.878	90.1158	100.404	210.778	45.347	136.678	206.361	64.6284	116.02	187.915	75.1395	99.6924	206.292	21.9596	176.99	201.525	0.516296	193.296	190.831	29.7907	204.188	
116	0.966667	149.438	29.1235	201.321	127.326	43.8311	179.796	116.938	63.7591	162.429	123.564	72.9812	141.14	174.713	86.0812	167.309	152.702	99.3485	144.143	133.437	81.2141	125.339	197.001	82.6804	154.458	188.232	96.7119	125.535	164.438	98.3021	104.47	206.799	67.2356	144.069	202.975	83.8668	120.683	181.143	89.9612	102.06	209.009	46.2067	138.09	208.157	61.18	117.149	184.276	74.6046	100.752	205.346	26.7006	176.136	201.704	-0.368056	196.49	187.489	29.1942	207.891	
117	0.975	148.037	28.4124	201.069	124.604	42.7105	182.147	119.673	60.7925	162.157	119.918	75.7241	139.601	169.958	89.1809	167.006	151.462	98.072	145.392	130.926	82.4142	126.502	195.649	80.5431	153.621	188.343	96.4004	131.528	162.501	98.3753	105.478	206.274	64.0037	142.834	200.308	82.3547	121.089	175.528	91.8889	101.236	209.537	44.5148	134.31	206.689	59.9482	115.848	181.323	73.4006	98.8404	203.191	26.0137	176.225	200.545	-2.74428	191.378	186.586	32.0549	203.358	
118	0.983333	144.8	27.9885	204.61	125.999	44.6881	179.625	115.004	60.8358	164.229	118.601	75.3215	141.197	169.958	85.3285	168.19	151.565	97.5803	145.183	128.3	83.7419	127.342	192.968	77.2047	154.467	186.273	95.3199	129.668	161.933	95.6067	103.623	205.447	64.6284	140.801	197.544	82.5232	116.948	174.959	92.1005	102.079	205.08	39.6516	136.349	202.433	59.3307	110.347	182.642	70.6792	98.2883	202.986	22.1366	176.239	199.117	-2.5102	190.937	187.23	31.3328	203.274	
119	0.991667	143.635	29.2514	202.53	123.523	44.1648	180.181	115.917	60.4642	163.158	116.358	73.4507	141.225	168.91	85.1918	168.806	151.518	95.4683	142.265	129.438	82.9304	126.756	193.164	80.3281	152.282	183.8	95.8954	127.702	162.313	95.1811	104.594	201.302	63.7982	145.07	196.346	82.6339	117.716	175.263	90.4266	103.807	204.796	37.9445	135.434	200.719	60.5924	113.033	179.856	71.3265	97.8547	199.016	22.4557	177.336	197.664	2.16464	193.122	182.398	31.7995	204.89	
120	1	141.623	29.2906	203.573	121.321	45.6758	178.22	114.596	60.0447	159.168	115.033	72.1242	138.711	168.306	87.4839	163.668	149.95	96.9126	143.186	130.741	82.2289	125.962	190.524	82.5875	153.432	184.612	94.9566	128.971	159.405	97.2958	104.516	201.26	63.9567	144.669	198.047	81.5309	120.222	175.126	88.9208	101.288	204.094	39.5707	135.471	202.257	58.2963	114.487	178.224	71.2071	97.3223	199.127	27.2146	176.7	196.448	0.107761	196.712	183.819	32.139	205.717	
121	1.00833	140.464	30.5178	202.541	119.965	39.2993	179.199	113.47	59.6397	155.887	114.281	70.1367	135.172	168.18	85.5297	165.714	146.42	96.8905	142.39	126.797	79.7871	125.352	191.173	77.3729	153.233	182.671	96.4795	129.375	155.02	94.3898	103.053	202.014	63.4672	143.575	194.387	82.5798	118.271	169.349	90.8109	102.801	203.293	43.2991	135.265	199.525	61.2563	116.08	176.292	70.841	96.3103	199.449	26.5313	177.028	196.398	1.02484	192.685	183.032	31.8307	201.946	
122	1.01667	138.632	31.8658	202.478	117.591	40.8234	177.577	111.923	57.2303	155.992	117.559	68.5986	133.093	163.683	89.1414	165.304	144.765	97.1665	141.098	126.786	83.6224	127.35	188.251	79.6508	154.929	180.697	95.2477	128.039	152.416	95.8918	104.822	200.337	66.6923	143.145	192.285	85.1305	119.758	167.724	89.4587	100.174	200.373	48.6062	136.386	197.494	61.9315	116.728	171.746	68.4105	95.0757	200.883	27.8381	175.969	196.526	-0.659845	194.357	179.678	32.5153	208.196	
123	1.025	137.564	29.7428	203.167	116.462	43.0499	175.797	111.254	55.6575	157.364	109.364	70.1404	132.726	161.525	89.1228	165.34	143.923	97.8807	142.167	122.841	78.1883	122.527	186.681	81.0879	151.948	175.743	97.5248	126.275	151.384	97.0373	104.798	198.686	69.9796	143.182	189.949	86.2654	120.349	168.287	89.0656	100.544	201.884	44.6446	136.069	193.985	62.7379	111.013	172.045	69.5446	93.896	199.862	27.1507	176.125	196.37	2.76112	195.936	177.93	33.1635	206.153	
124	1.03333	136.735	30.2283	200.644	116.307	40.8116	178.474	106.708	57.4629	157.005	109.159	69.2813	135.005	157.407	89.6158	162.146	140.157	95.2279	139.371	119.598	79.7152	123.484	181.641	85.0727	151.392	175.952	95.0964	126.186	149.781	94.7885	100.28	195.633	66.6881	141.534	189.731	83.6116	117.902	164.407	89.7718	99.131	200.061	46.6068	133.519	191.495	61.6939	111.257	170.31	68.9517	96.4068	193.944	29.1234	176.454	190.694	4.86664	198.239	173.785	35.2593	206.432	
125	1.04167	131.501	29.5543	204.078	109.818	43.4925	180.016	102.583	57.8182	161.122	103.885	72.6677	138.12	154.116	85.1508	163.637	136.436	94.4482	140.474	114.111	75.7818	122.591	178.908	77.6409	149.321	166.343	95.4581	123.185	142.421	89.6253	97.8028	188.187	65.7458	142.425	182.906	80.0734	114.078	162.046	86.0319	98.5645	190.05	42.217	137.376	189.001	57.3536	115.965	168.064	65.9549	96.5792	192.381	26.0491	176.376	186.587	3.02566	195.584	169.258	34.6608	205.15	
126	1.05	125.772	32.3111	204.632	105.445	45.0433	184.292	95.8804	63.6925	165.524	97.8134	74.3012	144.621	146.46	87.6456	165.592	129.541	93.7371	137.555	110.364	75.6781	122.162	172.061	80.8074	148.034	160.56	93.7241	122.46	137.666	90.0887	99.4005	183.668	65.4681	140.067	176.262	80.4485	117.754	154.506	85.5055	94.7345	185.057	41.4297	136.822	181.621	56.015	112.334	160.061	67.4751	96.1837	183.314	29.4453	179.166	181.96	3.44261	196.882	165.206	37.7701	206.663	
127	1.05833	120.066	36.3496	208.003	102.818	49.4065	184.768	90.8783	65.0979	169.385	92.1681	79.5584	147.156	143.161	88.5698	162.82	121.607	97.7584	140.645	100.518	78.0902	125.914	164.196	83.946	152.571	153.962	95.2857	122.778	128.287	93.1704	100.884	174.947	69.1302	144.715	169.094	84.0677	116.003	149.266	86.8589	97.1066	181.874	46.8375	136.026	173.191	61.0948	113.132	153.021	68.6931	95.213	177.886	30.8964	178.174	172.274	5.96846	201.968	158.688	35.6397	207.568	
128	1.06667	112.272	37.0682	212.374	95.58	48.0807	189.925	86.6672	66.9256	170.455	86.0163	83.4295	147.118	135.664	91.4038	165.495	120.674	96.5305	141.827	98.4037	78.1143	127.982	158.353	82.0449	154.792	147.076	98.2864	125.754	120.861	92.7379	102.706	170.069	71.7586	145.693	163.257	85.6248	119.177	139.595	88.9054	99.5494	176.29	46.8442	137.254	170.35	61.9507	118.469	148.626	69.5358	102.291	171.894	32.9474	179.278	171.15	8.6871	201.674	152.765	37.1301	209.806	
129	1.075	110.522	38.5891	210.371	91.6865	52.7752	190.553	80.4416	70.8922	173.669	80.9706	83.7585	151.18	131.989	92.2039	162.829	113.2	98.7007	143.629	92.6813	78.2227	129.291	153.653	87.5248	153.951	143.064	97.8046	125.481	114.162	95.125	105.513	164.979	70.8301	147.699	161.187	84.4317	123.058	135.785	89.0031	99.7648	167.944	47.1269	143.291	163.698	61.5622	114.815	140.557	66.6341	99.2343	166.856	33.6701	182.935	163.009	9.63488	205.158	148.414	41.4217	212.227	
130	1.08333	108.785	38.1287	213.931	87.4953	56.7629	192.584	81.5684	73.6892	173.553	82.5819	84.2666	152.089	129.554	91.8168	166.789	109.811	99.0893	145.668	91.4054	77.4279	129.615	152.697	85.3751	151.682	138.613	98.1642	126.572	115.119	94.9181	107.234	163.254	70.4331	146.868	155.9	86.3088	122.357	132.036	91.0888	101.158	165.072	50.8139	143.085	162.751	61.2583	119.252	137.256	70.5918	100.878	163.942	36.0968	185.756	163.169	8.98031	202.919	146.227	41.7615	211.177	
131	1.09167	109.017	41.8093	213.869	88.2079	54.4176	196.914	79.1131	76.8627	176.634	82.0103	87.3795	156.098	127.316	92.9966	171.339	110.496	100.013	145.886	86.7691	81.0371	134.681	150.535	82.9602	156.675	137.013	98.7786	127.268	113.051	93.2531	105.054	161.003	68.6602	148.821	154.636	86.2747	123.955	129.937	89.6358	101.989	164.518	49.0917	144.135	157.066	64.1733	119.472	136.086	70.148	101.974	161.491	34.1792	187.366	163.198	14.4805	204.061	146.812	44.5571	211.466	
132	1.1	105.005	41.1891	220.26	87.1661	57.5922	199.79	81.0679	80.0216	179.009	86.798	87.3371	156.749	130.526	90.1619	169.06	112.453	97.3477	144.767	83.3327	78.1738	135.751	149.564	86.553	160.111	138.478	99.4115	128.671	115.9	95.4821	108.169	160.679	70.6362	149.419	155.083	86.1579	127.07	129.203	92.0047	106.19	163.501	46.6941	146.201	155.901	65.78	121.185	134.262	70.917	107.685	164.525	33.4607	188.239	162.015	9.74946	205.96	146.164	42.4727	217.521	
133	1.10833	105.039	41.5785	222.242	91.3735	58.9694	197.189	85.49	75.1634	180.322	89.2076	85.8633	156.948	128.69	93.3262	170.426	110.219	96.5654	146.213	87.8304	72.7563	135.319	151.668	83.113	156.367	139.936	97.8792	134.531	115.865	92.5155	108.831	161.91	66.8086	150.814	156.56	81.5352	125.17	133.373	85.4163	104.294	165.488	46.3383	144.627	156.279	62.0191	119.825	135.534	68.8904	109.445	162.167	33.0543	188.688	160.221	15.1895	209.568	144.161	43.7332	217.819	
134	1.11667	109.803	40.1232	222.125	92.9573	56.7902	201.261	85.3769	80.0499	181.189	92.5103	88.1985	156.371	134.278	88.1003	169.338	114.018	96.3968	147.333	87.8207	73.8428	138.172	152.435	82.1505	158.925	141.171	92.9113	130.675	111.969	86.0867	107.992	162.005	65.2072	152.697	156.539	77.9277	127.251	127.951	84.0983	106.664	163.208	40.9659	149.581	155.093	59.3906	124.375	134.392	65.7199	109.771	162.923	29.6308	193.779	158.524	7.60981	213.3	148.482	38.7633	218.713	
135	1.125	116.463	47.9509	224.991	98.6429	66.1487	205.888	95.1172	85.4565	183.407	101.352	88.4279	158.816	140.701	86.8162	169.613	122.397	90.7198	143.414	94.1632	74.3855	139.043	158.06	74.6099	151.889	145.63	85.8475	126.971	118.283	85.114	109.533	164.496	58.8625	146.563	155.307	71.0383	121.17	132.747	75.1418	105.043	160.888	34.1929	146.574	153.979	49.285	119.736	131.572	58.1972	106.228	163.953	25.5132	187.974	161.33	5.85829	214.612	152.886	40.9915	215.058	
136	1.13333	130.957	51.99	230.294	118.095	70.6634	208.046	114.437	86.4483	186.444	115.321	89.9209	160.841	153.398	74.5804	162.248	131.709	89.8353	143.22	98.0499	77.2431	146.923	162.145	59.8422	146.413	150.641	73.6323	124.203	119.63	77.2302	109.237	162.455	39.1454	142.823	153.705	51.8696	117.631	128.249	65.1091	101.436	155.137	20.9826	145.28	145.692	33.4923	118.896	125.662	49.8358	108.046	165.095	15.1826	186.43	159.561	-3.00426	213.721	164.442	34.7093	213.096	
137	1.14167	149.443	55.1369	232.232	137.132	75.7353	210.628	133.615	92.2752	187.173	126.837	90.0104	165.524	159.79	68.5167	156.128	137.82	83.2196	143.171	106.886	83.8621	152.868	161.78	47.3831	143.973	145.954	64.2202	119.301	117.518	74.6049	113.117	157.135	28.0459	139.901	144.984	42.8933	115.876	121.29	59.5777	105.411	145.835	13.0511	146.222	135.926	22.627	123.685	112.611	39.3845	111.803	162.221	2.84094	188.518	164.306	-3.07036	217.113	173.12	30.7844	212.018	
138	1.15	164.107	55.5918	234.354	151.79	78.1242	217.194	145.382	93.7159	193.198	135.576	96.977	169.373	162.284	63.5162	157.574	139.404	82.6966	146.936	111.788	84.9403	159.955	160.975	42.6923	145.281	142.187	59.1506	124.026	115.899	69.3009	118.665	151.066	23.6598	148.418	136.36	35.3744	121.531	116.981	56.911	112.747	139.629	9.55593	154.13	128.252	20.0566	132.529	107.904	38.4037	119.53	164.225	3.6046	192.097	165.466	-7.84146	220.061	178.271	24.5799	215.644	
